<?xml version="1.0" encoding="utf-8"?>
<!-- Generator: Adobe Illustrator 27.1.1, SVG Export Plug-In . SVG Version: 6.00 Build 0)  -->
<svg version="1.1" id="Laag_1" xmlns="http://www.w3.org/2000/svg" xmlns:xlink="http://www.w3.org/1999/xlink" x="0px" y="0px"
	 viewBox="0 0 512 512" style="enable-background:new 0 0 512 512;" xml:space="preserve">
<style type="text/css">
	.st0{fill:none;stroke:#36A9E1;stroke-width:40;stroke-linecap:round;stroke-miterlimit:10;}
	.st1{fill:none;stroke:#FFED00;stroke-width:3;stroke-linecap:round;stroke-miterlimit:10;}
</style>
<path class="st0" d="M459,29.7c0,0-413.2,23.5-422.6,23.7c-6,0.1-3.3,201.7,2.7,201.6c5.4-0.1,438.7,43.5,439.8,24.2
	c1.1-19.4-29.6,185.5-12.4,186c17.2,0.5-430.3,29-432.6,11.3"/>
<polygon class="st1" points="449.4,28.9 446.5,31 447.6,34.3 444.8,32.2 442,34.3 443.1,31 440.2,29 443.7,28.9 444.8,25.6 
	445.9,28.9 "/>
<polygon class="st1" points="286.6,39.4 283.3,40.6 283.5,44.1 281.3,41.4 278,42.7 279.9,39.7 277.7,37 281.1,37.9 283,35 
	283.2,38.5 "/>
<polygon class="st1" points="475.1,317.2 473.9,320.5 476.7,322.6 473.2,322.5 472.1,325.8 471.1,322.5 467.6,322.4 470.5,320.4 
	469.5,317.1 472.2,319.2 "/>
<polygon class="st1" points="58.9,478.1 57.7,481.3 60.5,483.5 57,483.4 55.9,486.7 54.9,483.3 51.4,483.2 54.2,481.3 53.2,477.9 
	56,480 "/>
<polygon class="st1" points="35.8,200 34.5,203.2 37.2,205.4 33.7,205.2 32.5,208.5 31.6,205.1 28.1,204.9 31,203 30.2,199.6 
	32.9,201.8 "/>
<polygon class="st1" points="200.7,271.3 209,268.1 208.5,259.2 214.2,266.1 222.5,262.9 217.6,270.4 223.3,277.3 214.7,275 
	209.9,282.5 209.3,273.6 "/>
<polygon class="st1" points="102.1,45.4 110.9,46.5 114.7,38.4 116.4,47.2 125.2,48.2 117.4,52.6 119.1,61.3 112.6,55.2 104.8,59.5 
	108.6,51.5 "/>
<polygon class="st1" points="367.5,470.6 371,471.2 372.6,468.1 373.1,471.6 376.5,472.1 373.4,473.7 373.9,477.1 371.5,474.6 
	368.4,476.2 370,473.1 "/>
</svg>
